# Blender v2.91.0 OBJ File: ''
# www.blender.org
mtllib water.mtl
o A_River3__RiverSide_00
v -0.000002 -0.749996 -11.997972
v -0.000002 -2.574996 -11.997972
v -4.095122 -2.574996 -11.997972
v -4.095122 -0.749996 -11.997972
v 6.999998 -2.574996 -11.997972
v 7.028852 -0.749996 -11.997972
v 8.000000 -2.574996 -11.997972
v 8.000000 -0.749996 -11.997972
v -0.000002 -2.525000 11.996264
v -4.287339 -0.750000 11.996264
v -4.287339 -2.525000 11.996264
v -0.000002 -0.750000 11.996264
v 4.032346 -2.352466 11.996264
v -0.000002 -2.525000 11.996264
v 4.032343 -2.591184 11.996264
v 4.499999 -0.750000 11.996264
v 4.083773 -2.300946 11.996264
v 4.460663 -2.289135 11.996264
v 5.032347 -1.852467 11.996264
v 4.583774 -2.050947 11.996264
v 5.032347 -2.039136 11.996264
v 5.532346 -1.602467 11.996264
v 5.083774 -1.800947 11.996264
v 5.532346 -1.789135 11.996264
v 6.032347 -1.352467 11.996264
v 5.583774 -1.550947 11.996264
v 6.032347 -1.539135 11.996264
v 7.028852 -0.750000 11.996264
v 6.583773 -1.050947 11.996264
v 7.043255 -1.039518 11.996264
v 6.532346 -1.102467 11.996264
v 6.583773 -1.050947 11.996264
v 6.083773 -1.300947 11.996264
v 6.532346 -1.102467 11.996264
v 6.532346 -1.289444 11.996264
v 4.532347 -2.102467 11.996264
v 4.583774 -2.050947 11.996264
v 4.499999 -0.750000 11.996264
v 5.083774 -1.800947 11.996264
v 4.499999 -0.750000 11.996264
v 5.032347 -1.852467 11.996264
v 5.532346 -1.602467 11.996264
v 5.583774 -1.550947 11.996264
v 5.583774 -1.550947 11.996264
v 6.083773 -1.300947 11.996264
v 6.032347 -1.352467 11.996264
v 6.583773 -1.050947 11.996264
v 4.499999 -0.750000 11.996264
v 6.532346 -1.102467 11.996264
v 7.028852 -0.750000 11.996264
v 4.583774 -2.050947 11.996264
v 5.032347 -1.852467 11.996264
v 5.083774 -1.800947 11.996264
v 5.532346 -1.602467 11.996264
v 4.499999 -0.750000 11.996264
v 4.460663 -2.289135 11.996264
v 4.532347 -2.102467 11.996264
v 4.532347 -2.341875 11.996264
vt 1.637695 1.394043
vt 1.637695 1.044220
vt 2.437500 1.044220
vt 2.437500 1.394043
vt 0.238403 1.044220
vt 0.238403 1.394043
vt 0.038422 1.044220
vt 0.038422 1.394043
vt 0.838379 1.044220
vt 0.000000 1.394043
vt 0.000000 1.044220
vt 0.838379 1.394043
vt 1.635742 1.086914
vt 0.838379 1.044220
vt 1.635742 1.044220
vt 1.738281 1.394043
vt 1.646484 1.097229
vt 1.721680 1.099609
vt 1.835938 1.186890
vt 1.746094 1.147217
vt 1.835938 1.149536
vt 1.935547 1.236938
vt 1.845703 1.197266
vt 1.935547 1.199585
vt 2.035156 1.286865
vt 1.946289 1.247192
vt 2.035156 1.249512
vt 2.238281 1.394043
vt 2.146484 1.347168
vt 2.238281 1.349365
vt 2.134766 1.336914
vt 2.146484 1.347168
vt 2.044922 1.297119
vt 2.134766 1.336914
vt 2.134766 1.299561
vt 1.735352 1.136963
vt 1.746094 1.147217
vt 1.738281 1.394043
vt 1.845703 1.197266
vt 1.738281 1.394043
vt 1.835938 1.186890
vt 1.935547 1.236938
vt 1.946289 1.247192
vt 1.946289 1.247192
vt 2.044922 1.297119
vt 2.035156 1.286865
vt 2.146484 1.347168
vt 1.738281 1.394043
vt 2.134766 1.336914
vt 2.238281 1.394043
vt 1.746094 1.147217
vt 1.835938 1.186890
vt 1.845703 1.197266
vt 1.935547 1.236938
vt 1.738281 1.394043
vt 1.721680 1.099609
vt 1.735352 1.136963
vt 1.735352 1.089050
vn 0.0000 0.0000 -1.0000
vn 0.0000 0.0000 1.0000
usemtl RiverSide_00
s off
f 1/1/1 2/2/1 3/3/1
f 1/1/1 3/3/1 4/4/1
f 5/5/1 2/2/1 1/1/1
f 6/6/1 5/5/1 1/1/1
f 7/7/1 5/5/1 6/6/1
f 7/7/1 6/6/1 8/8/1
f 9/9/2 10/10/2 11/11/2
f 12/12/2 10/10/2 9/9/2
f 13/13/2 14/14/2 15/15/2
f 16/16/2 9/9/2 13/13/2
f 16/16/2 12/12/2 9/9/2
f 13/13/2 17/17/2 16/16/2
f 17/17/2 18/18/2 16/16/2
f 19/19/2 20/20/2 21/21/2
f 22/22/2 23/23/2 24/24/2
f 25/25/2 26/26/2 27/27/2
f 28/28/2 29/29/2 30/30/2
f 29/29/2 31/31/2 30/30/2
f 30/30/1 31/31/1 32/32/1
f 31/31/1 33/33/1 32/32/1
f 32/32/2 33/33/2 34/34/2
f 33/33/2 35/35/2 34/34/2
f 36/36/2 37/37/2 38/38/2
f 39/39/2 40/40/2 41/41/2
f 40/40/2 42/42/2 43/43/2
f 40/40/2 44/44/2 45/45/2
f 44/44/2 46/46/2 45/45/2
f 45/45/2 47/47/2 48/48/2
f 45/45/2 49/49/2 47/47/2
f 47/47/2 50/50/2 48/48/2
f 48/48/2 51/51/2 52/52/2
f 48/48/2 53/53/2 54/54/2
f 55/55/2 56/56/2 57/57/2
f 56/56/2 58/58/2 57/57/2
o A_River3__River_00
v 7.028852 -0.750000 11.996264
v 7.028852 -0.749999 8.270243
v 5.596985 -0.749999 8.270243
v 4.499999 -0.750000 11.996264
v -0.000002 -0.749999 8.270243
v -0.000002 -0.750000 11.996264
v -4.287339 -0.749999 8.270243
v -4.287339 -0.750000 11.996264
v -0.000002 -0.749999 8.007612
v -4.095122 -0.749999 8.007612
v 5.674232 -0.749999 8.007612
v 7.028852 -0.749999 8.007612
v -0.000002 -0.749999 3.500000
v -4.095122 -0.749999 3.500000
v 7.028852 -0.749999 3.500000
v -0.000002 -0.749998 -2.000000
v -4.095122 -0.749998 -2.000000
v 7.028852 -0.749998 -2.000000
v 8.000000 -0.749999 3.500000
v -0.000002 -0.749996 -9.188737
v -4.095122 -0.749996 -9.188737
v 7.028852 -0.749996 -9.188737
v 8.000000 -0.749998 -2.000000
v -0.000002 -0.749996 -11.997972
v -4.095122 -0.749996 -11.997972
v 7.028852 -0.749996 -11.997972
v 8.000000 -0.749996 -9.188737
v 8.000000 -0.749996 -11.997972
vt -0.500977 3.630859
vt 0.498779 5.425781
vt -0.500977 5.425781
vt 0.498779 3.630859
vt 0.502441 6.070313
vt -0.497070 6.070313
vt 2.123047 5.425781
vt 2.126953 6.070313
vt 2.498047 5.425781
vt 2.501953 6.070313
vt 2.498047 3.630859
vt 2.123047 3.630859
vt 2.498047 2.256836
vt 2.123047 2.256836
vt -0.498535 1.129028
vt 0.498779 2.256836
vt -0.500977 2.256836
vt 0.500977 1.129028
vt 0.500977 1.063354
vt -0.498535 1.063354
vt 1.627930 0.129883
vt 1.845703 1.063354
vt 1.860352 1.129028
vt 2.126953 0.129883
vt 2.125000 1.063354
vt 2.125000 1.129028
vt 0.502930 0.129883
vt -0.496582 0.129883
vn 0.0000 1.0000 0.0000
usemtl River_00
s off
f 75/59/3 78/60/3 79/61/3
f 74/62/3 78/60/3 75/59/3
f 79/61/3 82/63/3 83/64/3
f 78/60/3 82/63/3 79/61/3
f 80/65/3 84/66/3 82/63/3
f 78/60/3 80/65/3 82/63/3
f 84/66/3 85/67/3 86/68/3
f 80/65/3 85/67/3 84/66/3
f 80/65/3 81/69/3 85/67/3
f 76/70/3 81/69/3 80/65/3
f 76/70/3 80/65/3 78/60/3
f 74/62/3 76/70/3 78/60/3
f 76/70/3 77/71/3 81/69/3
f 73/72/3 77/71/3 76/70/3
f 68/73/3 71/74/3 72/75/3
f 67/76/3 71/74/3 68/73/3
f 71/74/3 74/62/3 72/75/3
f 72/75/3 74/62/3 75/59/3
f 73/72/3 76/70/3 74/62/3
f 71/74/3 73/72/3 74/62/3
f 63/77/3 68/73/3 65/78/3
f 63/77/3 67/76/3 68/73/3
f 62/79/3 61/80/3 63/77/3
f 63/77/3 61/80/3 67/76/3
f 61/80/3 69/81/3 67/76/3
f 67/76/3 69/81/3 71/74/3
f 69/81/3 73/72/3 71/74/3
f 59/82/3 61/80/3 62/79/3
f 59/82/3 60/83/3 61/80/3
f 61/80/3 60/83/3 69/81/3
f 60/83/3 70/84/3 69/81/3
f 69/81/3 70/84/3 73/72/3
s 1
f 64/85/3 65/78/3 66/86/3
f 64/85/3 63/77/3 65/78/3
f 62/79/3 63/77/3 64/85/3
o shape0__WaterEdge00
v 6.775003 -0.740002 11.750002
v -3.941324 -0.740002 11.750002
v 7.025004 -0.740002 12.000002
v -4.191323 -0.740002 12.000002
v -3.999997 -0.739998 -12.000002
v -3.749997 -0.739998 -11.750002
v 8.000005 -0.739998 -12.000002
v 7.750004 -0.739998 -11.750002
v -3.999997 -0.739998 -9.952370
v -3.749997 -0.739998 -11.750002
v -3.999997 -0.739998 -12.000002
v -3.749997 -0.739998 -9.920444
v -3.749997 -0.739998 -9.328641
v -4.335961 -0.739999 -9.371343
v -4.335961 -0.739999 -8.598238
v -3.749997 -0.739999 -8.601259
v -4.051005 -0.739999 -7.649103
v -3.749997 -0.739999 -7.718243
v 8.003339 -0.739998 -10.773553
v 8.000005 -0.739998 -12.000002
v 7.750004 -0.739998 -11.750002
v 7.752818 -0.739998 -10.758923
v 8.076192 -0.739999 -10.199983
v 7.754397 -0.739998 -10.202722
v 7.756588 -0.739998 -9.431377
v 8.007062 -0.739999 -9.404568
v 7.766047 -0.739999 -6.100001
v 8.016047 -0.739999 -6.100001
v 5.845309 -0.739999 -5.848821
v 6.054176 -0.739999 -6.057689
v 5.700004 -0.739999 -5.957811
v 5.781476 -0.739999 -6.207811
v 5.450004 -0.739999 -6.250001
v 5.450004 -0.739999 -6.000001
v 4.500003 -0.739999 -6.000001
v 4.500003 -0.739999 -6.250001
v 4.300004 -0.739999 -5.961690
v 4.188221 -0.739999 -6.216349
v 4.149761 -0.739999 -5.857210
v 3.932364 -0.739999 -6.093236
v 3.932364 -0.739999 -6.093236
v 3.780132 -0.739999 -5.821099
v 4.149761 -0.739999 -5.857210
v 4.048761 -0.739999 -5.700000
v 4.000003 -0.739999 -5.550000
v 3.750004 -0.739999 -5.550000
v 4.000003 -0.739999 -4.800001
v 3.750004 -0.739999 -4.800001
v 3.991974 -0.739999 -4.000000
v 3.741974 -0.739999 -4.000000
v 3.787186 -0.739999 -3.500001
v 4.037187 -0.739999 -3.500001
v 3.952024 -0.740000 -2.900000
v 3.702024 -0.740000 -2.900000
v 3.745358 -0.740000 -2.030969
v 3.995028 -0.740000 -2.037616
v 3.748687 -0.740000 -1.964243
v 3.999008 -0.740000 -1.957787
v 3.769344 -0.740000 -1.550000
v 4.019343 -0.740000 -1.550000
v 3.987469 -0.740000 -0.550000
v 3.737469 -0.740000 -0.550000
v 6.000004 -0.740000 -2.000000
v 8.000005 -0.740000 -2.000000
v 6.093484 -0.740000 -2.093480
v 7.859512 -0.740000 -2.140494
v 6.250004 -0.740000 -2.250000
v 7.750004 -0.740000 -2.250000
v 8.000005 -0.740000 -2.000000
v 8.001175 -0.740000 -2.144264
v 7.859512 -0.740000 -2.140494
v 8.006421 -0.740000 -2.790613
v 7.750004 -0.740000 -2.250000
v 7.912973 -0.739999 -5.250000
v 7.761844 -0.739999 -2.790613
v 7.662609 -0.739999 -5.250000
v 6.054176 -0.739999 -6.057689
v 5.845309 -0.739999 -5.848821
v 6.214846 -0.739999 -5.780544
v 5.964846 -0.739999 -5.682123
v 6.250004 -0.739999 -5.500000
v 5.972686 -0.739999 -5.500000
v 6.041892 -0.739999 -3.950001
v 6.335696 -0.739999 -3.950001
v 6.288644 -0.739999 -3.016556
v 5.894292 -0.739999 -3.026880
v 6.250004 -0.740000 -2.250000
v 6.004006 -0.740000 -2.091098
v 6.093484 -0.740000 -2.093480
v 6.000004 -0.740000 -2.000000
v -3.749997 -0.739999 -6.448330
v -4.051005 -0.739999 -6.470825
v -4.337015 -0.739999 -6.030836
v -3.749997 -0.739999 -6.027550
v -3.999997 -0.739999 -5.680680
v -3.749997 -0.739999 -5.692678
v -3.749997 -0.740000 -2.157646
v -3.999997 -0.740000 -2.164096
v -4.194747 -0.740000 -2.065727
v -3.749997 -0.740000 -1.940092
v -3.999997 -0.740000 -1.272952
v -3.749997 -0.740000 -1.279607
v -3.999997 -0.740001 3.739911
v -3.749997 -0.740001 3.750952
v -4.251472 -0.740001 8.220032
v -4.191323 -0.740002 12.000002
v -3.941324 -0.740002 11.750002
v -3.941324 -0.740001 8.220033
v -4.596193 -0.740001 7.971871
v -3.893435 -0.740001 8.100437
v -3.999997 -0.740001 7.885243
v -3.749997 -0.740001 7.885243
v -4.044189 -0.740001 5.036660
v -3.749997 -0.740001 4.957593
v -4.105606 -0.740001 4.213494
v -3.749997 -0.740001 4.203207
v -4.290948 -0.740001 3.977565
v -3.749997 -0.740001 3.991416
v 3.750004 -0.740001 3.500000
v 4.000003 -0.740001 3.500000
v 4.038062 -0.740001 3.691373
v 4.000003 -0.740001 3.500000
v 3.750004 -0.740001 3.500000
v 3.800004 -0.740001 3.840398
v 4.038062 -0.740001 3.691373
v 3.800004 -0.740001 3.840398
v 4.146436 -0.740001 3.853568
v 3.934700 -0.740001 4.068774
v 3.934700 -0.740001 4.068774
v 4.158369 -0.740001 4.200001
v 4.146436 -0.740001 3.853568
v 4.308632 -0.740001 3.961943
v 4.500003 -0.740001 4.250000
v 4.308632 -0.740001 3.961943
v 4.158369 -0.740001 4.200001
v 4.500003 -0.740001 4.000000
v 4.500003 -0.740001 4.000000
v 5.350003 -0.740001 4.141486
v 5.350003 -0.740001 4.391486
v 6.775003 -0.740001 4.328523
v 7.025004 -0.740001 4.078523
v 6.775003 -0.740001 4.328523
v 6.775003 -0.740002 11.750002
v 7.025004 -0.740001 4.078523
v 7.025004 -0.740002 12.000002
vt 12.684660 0.750000
vt 9.029464 0.750000
vt 12.705879 0.000000
vt 8.980847 0.000000
vt 29.272499 0.000000
vt 29.272499 0.750000
vt 25.252760 0.000000
vt 25.326679 0.750000
vt 0.821818 0.000000
vt 0.000000 0.750000
vt 0.000000 0.000000
vt 0.743048 0.750000
vt 0.983401 0.750000
vt 1.055013 0.000000
vt 1.365299 0.000000
vt 1.278815 0.750000
vt 1.746235 0.000000
vt 1.637440 0.750000
vt 24.711779 0.000000
vt 25.252760 0.000000
vt 25.326679 0.750000
vt 24.846439 0.750000
vt 24.458780 0.000000
vt 24.576920 0.750000
vt 24.203150 0.750000
vt 24.107929 0.000000
vt 22.588869 0.750000
vt 22.650320 0.000000
vt 20.627279 0.000000
vt 20.627710 0.750000
vt 20.552849 0.000000
vt 20.548309 0.750000
vt 20.438290 0.750000
vt 20.443750 0.000000
vt 20.076460 0.000000
vt 20.081770 0.750000
vt 19.991039 0.000000
vt 19.987200 0.750000
vt 19.917879 0.000000
vt 19.921829 0.750000
vt 19.921829 0.750000
vt 19.849239 0.750000
vt 19.917879 0.000000
vt 19.845900 0.000000
vt 19.781130 0.000000
vt 19.773270 0.750000
vt 19.479900 0.000000
vt 19.472900 0.750000
vt 19.158579 0.000000
vt 19.152500 0.750000
vt 18.952250 0.750000
vt 18.957760 0.000000
vt 18.716770 0.000000
vt 18.711950 0.750000
vt 18.409019 0.750000
vt 18.415300 0.000000
vt 18.385759 0.750000
vt 18.387390 0.000000
vt 18.241360 0.750000
vt 18.244829 0.000000
vt 17.772900 0.000000
vt 17.770769 0.750000
vt 21.592699 0.000000
vt 21.978609 0.000000
vt 21.602570 0.280438
vt 21.961510 0.421479
vt 21.619089 0.750000
vt 21.948189 0.750000
vt 21.978609 0.000000
vt 21.998001 0.000000
vt 21.961510 0.421479
vt 22.084869 0.000000
vt 21.948189 0.750000
vt 22.415440 0.000000
vt 22.020649 0.750000
vt 22.350290 0.750000
vt 20.627710 0.750000
vt 20.627279 0.000000
vt 20.712002 0.750000
vt 20.710579 0.000000
vt 20.787130 0.750000
vt 20.780439 0.000000
vt 21.167650 0.000000
vt 21.214230 0.750000
vt 21.436539 0.750000
vt 21.368870 0.000000
vt 21.619089 0.750000
vt 21.572849 0.000000
vt 21.602570 0.280438
vt 21.592699 0.000000
vt 2.153196 0.750000
vt 2.219137 0.000000
vt 2.395727 0.000000
vt 2.324090 0.750000
vt 2.536262 0.000000
vt 2.460093 0.750000
vt 3.895794 0.750000
vt 3.947644 0.000000
vt 3.981038 0.000000
vt 3.928621 0.750000
vt 4.083829 0.000000
vt 4.028281 0.750000
vt 6.216971 0.000000
vt 6.194386 0.750000
vt 8.078969 0.000000
vt 8.980847 0.000000
vt 9.029464 0.750000
vt 8.071383 0.750000
vt 8.035857 0.000000
vt 8.031104 0.750000
vt 7.980950 0.000000
vt 7.974566 0.750000
vt 6.768782 0.000000
vt 6.713952 0.750000
vt 6.418497 0.000000
vt 6.389122 0.750000
vt 6.318101 0.000000
vt 6.297927 0.750000
vt 16.148739 0.750000
vt 16.146229 0.000000
vt 16.046080 0.000000
vt 16.146229 0.000000
vt 16.148739 0.750000
vt 16.025900 0.750000
vt 16.046080 0.000000
vt 16.025900 0.750000
vt 15.946850 0.000000
vt 15.947300 0.750000
vt 15.947300 0.750000
vt 15.865979 0.750000
vt 15.946850 0.000000
vt 15.846709 0.000000
vt 15.727300 0.750000
vt 15.846709 0.000000
vt 15.865979 0.750000
vt 15.748560 0.000000
vt 15.748560 0.000000
vt 15.465960 0.000000
vt 15.403729 0.750000
vt 14.861290 0.750000
vt 14.909080 0.000000
vt 14.861290 0.750000
vt 12.684660 0.750000
vt 14.909080 0.000000
vt 12.705879 0.000000
vn 0.0000 1.0000 0.0000
usemtl WaterEdge00
s off
f 87/87/4 88/88/4 89/89/4
f 88/88/4 90/90/4 89/89/4
f 91/91/4 92/92/4 93/93/4
f 92/92/4 94/94/4 93/93/4
f 95/95/4 96/96/4 97/97/4
f 95/95/4 98/98/4 96/96/4
f 99/99/4 95/95/4 100/100/4
f 99/99/4 98/98/4 95/95/4
f 101/101/4 99/99/4 100/100/4
f 102/102/4 99/99/4 101/101/4
f 103/103/4 104/104/4 102/102/4
f 105/105/4 106/106/4 107/107/4
f 105/105/4 107/107/4 108/108/4
f 109/109/4 105/105/4 110/110/4
f 110/110/4 105/105/4 108/108/4
f 111/111/4 109/109/4 110/110/4
f 112/112/4 109/109/4 111/111/4
f 112/112/4 111/111/4 113/113/4
f 112/112/4 113/113/4 114/114/4
f 115/115/4 116/116/4 117/117/4
f 116/116/4 118/118/4 117/117/4
f 117/117/4 118/118/4 119/119/4
f 117/117/4 119/119/4 120/120/4
f 119/119/4 121/121/4 120/120/4
f 119/119/4 122/122/4 121/121/4
f 121/121/4 122/122/4 123/123/4
f 122/122/4 124/124/4 123/123/4
f 123/123/4 124/124/4 125/125/4
f 124/124/4 126/126/4 125/125/4
f 127/127/4 128/128/4 129/129/4
f 128/128/4 130/130/4 129/129/4
f 128/128/4 131/131/4 130/130/4
f 128/128/4 132/132/4 131/131/4
f 131/131/4 132/132/4 133/133/4
f 132/132/4 134/134/4 133/133/4
f 133/133/4 134/134/4 135/135/4
f 134/134/4 136/136/4 135/135/4
f 135/135/4 137/137/4 138/138/4
f 135/135/4 136/136/4 137/137/4
f 137/137/4 139/139/4 138/138/4
f 137/137/4 140/140/4 139/139/4
f 139/139/4 141/141/4 142/142/4
f 139/139/4 140/140/4 141/141/4
f 141/141/4 143/143/4 142/142/4
f 142/142/4 143/143/4 144/144/4
f 143/143/4 145/145/4 144/144/4
f 144/144/4 145/145/4 146/146/4
f 145/145/4 147/147/4 146/146/4
f 145/145/4 148/148/4 147/147/4
f 149/149/4 150/150/4 151/151/4
f 150/150/4 152/152/4 151/151/4
f 151/151/4 152/152/4 153/153/4
f 152/152/4 154/154/4 153/153/4
f 155/155/4 156/156/4 157/157/4
f 156/156/4 158/158/4 159/159/4
f 156/156/4 159/159/4 157/157/4
f 158/158/4 160/160/4 161/161/4
f 158/158/4 161/161/4 159/159/4
f 160/160/4 114/114/4 113/113/4
f 160/160/4 113/113/4 162/162/4
f 160/160/4 162/162/4 161/161/4
f 163/163/4 164/164/4 165/165/4
f 164/164/4 166/166/4 165/165/4
f 165/165/4 166/166/4 167/167/4
f 166/166/4 168/168/4 167/167/4
f 167/167/4 169/169/4 170/170/4
f 167/167/4 168/168/4 169/169/4
f 169/169/4 171/171/4 170/170/4
f 169/169/4 172/172/4 171/171/4
f 171/171/4 172/172/4 173/173/4
f 172/172/4 174/174/4 173/173/4
f 173/173/4 174/174/4 175/175/4
f 174/174/4 176/176/4 175/175/4
f 103/103/4 102/102/4 101/101/4
f 177/177/4 104/104/4 103/103/4
f 177/177/4 103/103/4 178/178/4
f 178/178/4 179/179/4 180/180/4
f 177/177/4 178/178/4 180/180/4
f 180/180/4 179/179/4 181/181/4
f 180/180/4 181/181/4 182/182/4
f 181/181/4 183/183/4 182/182/4
f 181/181/4 184/184/4 183/183/4
f 184/184/4 185/185/4 186/186/4
f 184/184/4 186/186/4 183/183/4
f 185/185/4 187/187/4 186/186/4
f 186/186/4 187/187/4 188/188/4
f 187/187/4 189/189/4 190/190/4
f 187/187/4 190/190/4 188/188/4
f 191/191/4 192/192/4 193/193/4
f 191/191/4 193/193/4 194/194/4
f 195/195/4 191/191/4 196/196/4
f 197/197/4 195/195/4 196/196/4
f 196/196/4 191/191/4 194/194/4
f 197/197/4 196/196/4 198/198/4
f 199/199/4 197/197/4 198/198/4
f 199/199/4 198/198/4 200/200/4
f 201/201/4 199/199/4 200/200/4
f 201/201/4 200/200/4 202/202/4
f 189/189/4 203/203/4 204/204/4
f 203/203/4 201/201/4 204/204/4
f 204/204/4 201/201/4 202/202/4
f 189/189/4 204/204/4 190/190/4
f 148/148/4 205/205/4 147/147/4
f 147/147/4 205/205/4 206/206/4
f 207/207/4 208/208/4 209/209/4
f 210/210/4 207/207/4 209/209/4
f 211/211/4 212/212/4 213/213/4
f 212/212/4 214/214/4 213/213/4
f 215/215/4 216/216/4 217/217/4
f 216/216/4 218/218/4 217/217/4
f 219/219/4 220/220/4 221/221/4
f 219/219/4 222/222/4 220/220/4
f 223/223/4 219/219/4 224/224/4
f 219/219/4 225/225/4 224/224/4
f 224/224/4 225/225/4 226/226/4
f 224/224/4 226/226/4 227/227/4
f 228/228/4 229/229/4 230/230/4
f 229/229/4 231/231/4 230/230/4
